<svg width="36" height="36" viewBox="0 0 36 36" fill="none" xmlns="http://www.w3.org/2000/svg">
<path fill-rule="evenodd" clip-rule="evenodd" d="M5.56074 16.7657C4.96171 16.8482 4.5 17.3693 4.5 17.9998C4.5 18.6877 5.04947 19.2453 5.72727 19.2453H27.2999L19.507 27.122L19.3879 27.2615C19.0304 27.7483 19.0686 28.4403 19.5034 28.8834C19.9817 29.3708 20.7588 29.3724 21.2391 28.887L31.1216 18.8993C31.1804 18.8421 31.2337 18.7791 31.2804 18.711C31.615 18.2246 31.5678 17.5499 31.139 17.1166L21.239 7.1129L21.1011 6.99261C20.6199 6.63188 19.9381 6.67357 19.5034 7.11669C19.0251 7.60413 19.0268 8.39272 19.5071 8.87806L27.3018 16.7544H5.72727L5.56074 16.7657Z" fill="white"/>
</svg>
